# xmcd CD database file
#
# Track frame offsets:
#	150
#	28486
#	52361
#	75325
#	108193
#	134217
#	163870
#	182344
#	202238
#	220045
#	254271
#	289859
#
# Disc length: 4125 seconds
#
# Revision: 0
# Processed by: cddbd v1.5.2PL0 Copyright (c) Steve Scherf et al.
# Submitted via: CDex 1.70beta3
#
DISCID=ba101b0c
DTITLE=Gene DiNovi - Smile
DYEAR=2003
DGENRE=Jazz
TTITLE0=Play Fiddle Play
TTITLE1=Buttons and Bows
TTITLE2=Indian Love Call
TTITLE3=Smile
TTITLE4=How Can You Lose
TTITLE5=Will You Still Be Mine
TTITLE6=Shake Down The Stars - A Handful of Stars
TTITLE7=Do I Love You?
TTITLE8=The Things We Did Last Summer
TTITLE9=A Gal in Calico
TTITLE10=So in Love
TTITLE11='Tis Autumn
EXTD=YEAR: 2003
EXTT0=
EXTT1=
EXTT2=
EXTT3=
EXTT4=
EXTT5=
EXTT6=
EXTT7=
EXTT8=
EXTT9=
EXTT10=
EXTT11=
PLAYORDER=
